<?xml version="1.0" encoding="UTF-8"?>
<svg xmlns="http://www.w3.org/2000/svg" style="display:none" aria-hidden="true">
  <!--
    Inline SVG sprite that replaces the 207 KB tabler-icons font.
    Each symbol uses the Tabler icon source; only the 6 icons actually referenced
    by the Italia Camera Explorer are included. Strokes follow the default Tabler
    1.5px outline with "currentColor" so the existing `.site-nav-icon` CSS keeps
    controlling fill and size.
  -->
  <symbol id="icon-chart-grid-dots" viewBox="0 0 24 24" fill="none" stroke="currentColor" stroke-width="1.5" stroke-linecap="round" stroke-linejoin="round">
    <path d="M0 0h24v24H0z" stroke="none"/>
    <path d="M4 4v16h16"/>
    <circle cx="8" cy="16" r="1"/>
    <circle cx="12" cy="11" r="1"/>
    <circle cx="16" cy="8" r="1"/>
    <circle cx="20" cy="4" r="1"/>
    <circle cx="8" cy="8" r="1"/>
    <circle cx="16" cy="16" r="1"/>
  </symbol>
  <symbol id="icon-database-export" viewBox="0 0 24 24" fill="none" stroke="currentColor" stroke-width="1.5" stroke-linecap="round" stroke-linejoin="round">
    <path d="M0 0h24v24H0z" stroke="none"/>
    <ellipse cx="12" cy="6" rx="8" ry="3"/>
    <path d="M4 6v6c0 1.657 3.582 3 8 3s8-1.343 8-3V6"/>
    <path d="M4 12v6c0 1.657 3.582 3 8 3 1.118 0 2.183-.085 3.15-.238"/>
    <path d="M18 18h4"/>
    <path d="M20 20l2-2l-2-2"/>
  </symbol>
  <symbol id="icon-book-2" viewBox="0 0 24 24" fill="none" stroke="currentColor" stroke-width="1.5" stroke-linecap="round" stroke-linejoin="round">
    <path d="M0 0h24v24H0z" stroke="none"/>
    <path d="M19 4v16h-12a2 2 0 0 1 -2 -2v-12a2 2 0 0 1 2 -2h12z"/>
    <path d="M19 16h-12a2 2 0 0 0 -2 2"/>
    <path d="M9 8h6"/>
  </symbol>
  <symbol id="icon-history" viewBox="0 0 24 24" fill="none" stroke="currentColor" stroke-width="1.5" stroke-linecap="round" stroke-linejoin="round">
    <path d="M0 0h24v24H0z" stroke="none"/>
    <path d="M12 8l0 4l2 2"/>
    <path d="M3.05 11a9 9 0 1 1 .5 4m-.5 5v-5h5"/>
  </symbol>
  <symbol id="icon-arrow-left" viewBox="0 0 24 24" fill="none" stroke="currentColor" stroke-width="1.5" stroke-linecap="round" stroke-linejoin="round">
    <path d="M0 0h24v24H0z" stroke="none"/>
    <line x1="5" y1="12" x2="19" y2="12"/>
    <line x1="5" y1="12" x2="11" y2="18"/>
    <line x1="5" y1="12" x2="11" y2="6"/>
  </symbol>
  <symbol id="icon-arrow-right" viewBox="0 0 24 24" fill="none" stroke="currentColor" stroke-width="1.5" stroke-linecap="round" stroke-linejoin="round">
    <path d="M0 0h24v24H0z" stroke="none"/>
    <line x1="5" y1="12" x2="19" y2="12"/>
    <line x1="13" y1="18" x2="19" y2="12"/>
    <line x1="13" y1="6" x2="19" y2="12"/>
  </symbol>
</svg>
